<?xml version="1.0" standalone="no"?>
<!DOCTYPE svg PUBLIC "-//W3C//DTD SVG 20010904//EN"
 "http://www.w3.org/TR/2001/REC-SVG-20010904/DTD/svg10.dtd">
<svg version="1.0" xmlns="http://www.w3.org/2000/svg"
 width="2000.000000pt" height="2000.000000pt" viewBox="0 0 2000.000000 2000.000000"
 preserveAspectRatio="xMidYMid meet">

<g transform="translate(0.000000,2000.000000) scale(0.100000,-0.100000)"
fill="#000000" stroke="none">
<path d="M9545 19770 c-1200 -62 -2294 -312 -3380 -772 -228 -96 -710 -333
-924 -453 -603 -339 -1158 -730 -1686 -1190 -216 -188 -717 -689 -906 -906
-1368 -1570 -2195 -3491 -2383 -5534 -55 -590 -55 -1240 0 -1830 178 -1944
957 -3825 2199 -5315 225 -270 355 -411 624 -681 349 -348 643 -606 997 -875
1053 -799 2234 -1369 3512 -1694 1468 -374 3042 -396 4537 -64 1591 354 3060
1100 4310 2189 219 191 719 691 910 910 1760 2019 2611 4610 2389 7270 -137
1649 -687 3220 -1609 4600 -1207 1808 -2980 3165 -5030 3850 -806 270 -1576
420 -2485 485 -198 15 -867 20 -1075 10z m-5267 -5921 c595 -64 977 -349 1116
-832 50 -172 60 -256 60 -492 0 -309 -34 -477 -139 -690 -176 -357 -506 -566
-993 -629 -103 -13 -244 -16 -848 -16 l-724 0 0 1335 0 1335 715 0 c435 0 754
-4 813 -11z m3591 -1311 c277 -728 506 -1329 509 -1335 3 -10 -75 -13 -369
-13 l-374 0 -74 210 -74 210 -627 0 -627 0 -74 -210 -74 -210 -372 0 c-205 0
-373 2 -373 5 0 2 225 595 501 1317 276 722 503 1321 506 1331 5 16 38 17 512
17 l506 0 504 -1322z m2063 482 c535 -807 558 -840 588 -840 l30 0 0 840 0
840 350 0 350 0 0 -1335 0 -1335 -407 0 -408 1 -540 801 c-297 440 -552 818
-568 839 -21 30 -34 39 -57 39 l-30 0 0 -840 0 -840 -350 0 -350 0 0 1335 0
1335 418 0 417 -1 557 -839z m2298 -495 l0 -1335 -360 0 -360 0 0 1335 0 1335
360 0 360 0 0 -1335z m2550 1045 l0 -290 -790 0 -790 0 0 -250 0 -250 765 0
765 0 0 -250 0 -250 -765 0 -765 0 0 -255 0 -255 790 0 790 0 0 -290 0 -290
-1150 0 -1150 0 0 1335 0 1335 1150 0 1150 0 0 -290z m980 -745 l0 -1035 750
0 750 0 0 -300 0 -300 -1110 0 -1110 0 0 1335 0 1335 360 0 360 0 0 -1035z
m-506 -1979 c594 -84 1046 -295 1412 -660 338 -337 540 -752 621 -1276 25
-163 25 -606 0 -770 -83 -539 -294 -963 -649 -1306 -342 -331 -796 -542 -1348
-626 -124 -19 -187 -22 -445 -22 -345 -1 -489 15 -761 84 -444 113 -817 325
-1110 632 -344 361 -541 816 -595 1373 -15 151 -6 502 16 645 130 860 645
1494 1450 1788 191 70 455 127 700 152 132 13 579 4 709 -14z m-10089 -127
c522 -44 947 -181 1265 -407 436 -310 690 -780 765 -1417 22 -186 23 -552 1
-734 -65 -544 -249 -951 -570 -1259 -312 -299 -725 -475 -1311 -558 -107 -16
-259 -18 -1387 -21 l-1268 -4 0 2206 0 2205 1193 0 c733 0 1238 -4 1312 -11z
m5050 -13 c463 -65 841 -199 1115 -394 445 -317 702 -803 770 -1462 16 -148
16 -490 0 -645 -55 -556 -245 -987 -574 -1303 -312 -299 -725 -475 -1311 -558
-107 -16 -259 -18 -1387 -21 l-1268 -4 0 2206 0 2206 1268 -4 c1127 -3 1280
-5 1387 -21z"/>
<path d="M3478 13254 c-5 -4 -8 -333 -8 -731 l0 -724 363 4 c309 3 372 6 427
21 221 61 369 199 435 408 36 113 50 270 36 402 -36 332 -190 523 -483 597
-74 19 -120 22 -423 26 -187 3 -343 2 -347 -3z"/>
<path d="M6797 13173 c-7 -11 -367 -1010 -367 -1017 0 -3 194 -6 430 -6 237 0
430 3 430 6 0 4 -82 235 -182 515 l-182 509 -63 0 c-34 0 -64 -3 -66 -7z"/>
<path d="M14675 9720 c-587 -84 -965 -513 -992 -1130 -30 -663 356 -1163 969
-1254 600 -89 1132 236 1293 790 90 310 67 682 -60 959 -145 319 -417 535
-775 616 -97 22 -340 33 -435 19z"/>
<path d="M3990 8525 l0 -1095 450 0 c254 0 493 5 547 11 272 30 483 126 635
288 83 89 135 171 179 285 104 269 114 670 23 958 -118 375 -398 588 -839 638
-49 5 -294 10 -542 10 l-453 0 0 -1095z"/>
<path d="M8890 8526 l0 -1096 450 0 c254 0 493 5 547 11 251 28 450 111 596
249 208 195 300 452 300 835 0 606 -248 950 -770 1066 -92 21 -130 22 -610 26
l-513 5 0 -1096z"/>
</g>
</svg>
